<svg xmlns="http://www.w3.org/2000/svg" viewBox="0 0 1308.44 200.0"><path fill="#fff" d="M1095.6 81.04C1099.97 81.04 1102.19 78.42 1102.19 74.46L1102.23 30.29C1102.23 29.72 1101.12 28.16 1100.21 28.16L1032.32 28.5L1032.21 77.59C1032.21 78.59 1033.7 81.05 1034.72 81.05L1095.6 81.04M1119.01 109.05L1014.41 109.12C1000.9 107.6 988.7 100.79 988.79 85.62L989.16 22.42C989.24 9.25 1004.72 0.25 1015.62 0.22L1073.1 0.03L1120.14 0C1131.26 1.79 1142.03 9.44 1143.64 21.21L1143.37 84.35C1144.46 98.19 1131.99 107.52 1119.01 109.05M1205.14 74.37L1205.1 48.27L1255.81 47.67C1257.9 47.64 1261.23 45.31 1261.27 43.41L1261.47 33.5C1260.38 29.76 1257.5 28.54 1253.88 28.52L1196.65 28.2L1196.44 74.56L1196.18 109.07L1154.76 109.03L1154.78 0.73L1227.68 0.53L1280.75 0.18C1292.15 0.4 1304.37 8.2 1304.29 20.38L1304.08 49.72C1303.99 62.55 1294.12 72.04 1281.85 74.3L1270.15 74.74L1304.05 109.15L1254.4 109.5L1217.42 74.46L1205.14 74.37M250.7 73.99L250.6 48.3L299.82 47.63C302.83 47.59 304.9 44.32 304.88 41.92L304.83 34.68C304.66 31.76 302.59 28.88 299.27 28.86L242.1 28.51L241.96 109.06L201.09 109.07L200.84 62.79L200.82 1L319.47 0.68C331.72 0.65 341.56 8.87 341.54 20.44L341.48 50.29C341.46 56.82 337.32 62.45 332.43 66.43C327.34 70.56 321.69 72.16 315.03 74.57L348.06 109.02L299.1 109.19L262.28 73.95L250.7 73.99M731.12 62.84L730.65 108.47L684.82 108.45L685.19 1.5L731.01 1.36L731.21 41.32L787.27 0.98L846.52 1.12L771.51 54.11L841.97 109.11L785.75 109.33L731.12 62.84M467.75 67.52L445.65 33.24L423.56 67.53L467.75 67.52M483.46 90.89L446.25 90.21L407.18 89.65L394.28 109.07L351.1 109.05L419.95 1.66L472.26 1.59L540.79 108.55L495.27 108.96L483.46 90.89M977.89 81.05L977.82 109.05L865.62 109.07C852.57 108.08 842.81 99.77 843.03 86.27L844.06 25.66C844.18 18.59 845.6 12.58 851.07 7.8C855.74 3.72 861.5 1.1 868.13 0.91L980.13 0.93L980.19 28.22L892.3 28.25C888.88 28.57 886.33 31.31 886.33 34.78L886.32 74.53C886.32 78.28 889.26 81 892.98 80.8L977.89 81.05M589.06 80.31L674.55 80.36L674.54 108.08L563.89 108.03C553.23 106.41 542.73 99.02 542.81 87.64L543.3 22.48C543.39 11.1 554.09 3.33 564.74 1.68L675.66 1.56L675.66 28.47L589.56 28.52C585.72 28.89 583.16 31.54 583.16 35.38L583.2 73.93C583.2 76.87 585.4 80.31 589.06 80.31M727.78 175.28L198.01 175.28C197.67 173.5 197.7 172.16 198.2 170.49L727.13 170.49C728.75 171.77 728.66 173.39 727.78 175.28M129.36 71.02L75.08 117.87L75.25 48.97C75.26 45.84 72.69 43.85 69.9 43.6C49.63 41.78 19.82 45.63 0 53.11C4.8 43.47 10.59 35.19 18.37 28.19C35.98 12.33 58.46 0.47 82.86 0.38L185.75 0L185.35 47.17C185.33 49.35 184.42 51.18 182.5 51.91L168.3 51.82C167.46 48.36 165.53 46.4 162.38 45.87C153.57 44.41 144.77 43.49 135.9 43.46C132.29 43.44 129.37 46.01 129.47 49.46L129.36 71.02"/><path fill="#DB1F2D" d="M996.6 181.58L996.56 169.61L1025.2 169.37C1026.77 168.92 1027.09 166.06 1026.86 164.5C1027.13 163.1 1026.85 159.55 1024.66 159.55L991.61 159.46L991.42 198.88L970.08 198.89L970.31 146.24L1034.35 146.29C1042.1 146.29 1047.41 152.72 1047.1 159.34C1047.01 163.39 1047.43 167.23 1046.81 171.01C1045.68 177.94 1038.74 181.35 1031.39 181.81L1053.6 199.4L1024.84 199.54L1003.34 181.67L996.6 181.58M1242.99 188.97L1250.25 178.18L1268.74 177.99L1256.34 160.52L1228.57 199.35L1206.29 199.27L1242.67 146.35L1271.88 146.3L1308.44 199.36L1284.51 199.48L1277.29 189.11L1242.99 188.97M804.92 189.68L812.8 178.73L830.76 178.55L818.61 161.61L791.69 198.91L768.82 198.82L805.07 146.86L831.96 146.82L868.79 199.98L846.06 200L838.86 189.76L804.92 189.68M1145.78 181.73C1145.78 183.1 1147.09 185.34 1148.58 185.35L1192.31 185.39L1192.52 199.57L1137.23 199.45C1130.47 199.43 1124.55 193.72 1124.46 187.8C1124.28 177.31 1124.16 167.73 1124.61 157.28C1124.84 151.63 1131.38 146.41 1137.63 146.39L1192.31 146.21L1192.38 159.4L1149.75 159.4C1147.65 159.4 1145.82 160.88 1145.82 162.89L1145.78 181.73M948.4 169.13L935.49 180.82L907.46 180.87L907.32 199.53L884.93 199.53L885.28 146.29L951.19 146.24L951.22 159.63L907.48 159.61L907.52 169L948.4 169.13M1095.89 199.33L1074.87 199.4L1075.18 146.39L1095.99 146.38L1095.89 199.33M74.52 199.62L75.16 123.32L129.4 77.17L128.82 119.4L128.2 200L74.52 199.62"/></svg>